<svg preserveAspectRatio="none" width="100%" height="100%" overflow="visible" style="display: block;" viewBox="0 0 27 30" fill="none" xmlns="http://www.w3.org/2000/svg">
<path id="Icon" d="M3 30C2.175 30 1.46875 29.7062 0.88125 29.1187C0.29375 28.5312 0 27.825 0 27V6C0 5.175 0.29375 4.46875 0.88125 3.88125C1.46875 3.29375 2.175 3 3 3H4.5V0H7.5V3H19.5V0H22.5V3H24C24.825 3 25.5312 3.29375 26.1187 3.88125C26.7062 4.46875 27 5.175 27 6V27C27 27.825 26.7062 28.5312 26.1187 29.1187C25.5312 29.7062 24.825 30 24 30H3V30M3 27H24V27V27V12H3V27V27V27V27M3 9H24V6V6V6H3V6V6V9V9M3 9V6V6V6V6V6V6V9V9V9M13.5 18C13.075 18 12.7187 17.8563 12.4312 17.5688C12.1437 17.2813 12 16.925 12 16.5C12 16.075 12.1437 15.7187 12.4312 15.4312C12.7187 15.1437 13.075 15 13.5 15C13.925 15 14.2813 15.1437 14.5688 15.4312C14.8563 15.7187 15 16.075 15 16.5C15 16.925 14.8563 17.2813 14.5688 17.5688C14.2813 17.8563 13.925 18 13.5 18V18M7.5 18C7.075 18 6.71875 17.8563 6.43125 17.5688C6.14375 17.2813 6 16.925 6 16.5C6 16.075 6.14375 15.7187 6.43125 15.4312C6.71875 15.1437 7.075 15 7.5 15C7.925 15 8.28125 15.1437 8.56875 15.4312C8.85625 15.7187 9 16.075 9 16.5C9 16.925 8.85625 17.2813 8.56875 17.5688C8.28125 17.8563 7.925 18 7.5 18V18M19.5 18C19.075 18 18.7187 17.8563 18.4312 17.5688C18.1437 17.2813 18 16.925 18 16.5C18 16.075 18.1437 15.7187 18.4312 15.4312C18.7187 15.1437 19.075 15 19.5 15C19.925 15 20.2813 15.1437 20.5688 15.4312C20.8563 15.7187 21 16.075 21 16.5C21 16.925 20.8563 17.2813 20.5688 17.5688C20.2813 17.8563 19.925 18 19.5 18V18M13.5 24C13.075 24 12.7187 23.8563 12.4312 23.5688C12.1437 23.2813 12 22.925 12 22.5C12 22.075 12.1437 21.7187 12.4312 21.4312C12.7187 21.1437 13.075 21 13.5 21C13.925 21 14.2813 21.1437 14.5688 21.4312C14.8563 21.7187 15 22.075 15 22.5C15 22.925 14.8563 23.2813 14.5688 23.5688C14.2813 23.8563 13.925 24 13.5 24V24M7.5 24C7.075 24 6.71875 23.8563 6.43125 23.5688C6.14375 23.2813 6 22.925 6 22.5C6 22.075 6.14375 21.7187 6.43125 21.4312C6.71875 21.1437 7.075 21 7.5 21C7.925 21 8.28125 21.1437 8.56875 21.4312C8.85625 21.7187 9 22.075 9 22.5C9 22.925 8.85625 23.2813 8.56875 23.5688C8.28125 23.8563 7.925 24 7.5 24V24M19.5 24C19.075 24 18.7187 23.8563 18.4312 23.5688C18.1437 23.2813 18 22.925 18 22.5C18 22.075 18.1437 21.7187 18.4312 21.4312C18.7187 21.1437 19.075 21 19.5 21C19.925 21 20.2813 21.1437 20.5688 21.4312C20.8563 21.7187 21 22.075 21 22.5C21 22.925 20.8563 23.2813 20.5688 23.5688C20.2813 23.8563 19.925 24 19.5 24V24" fill="#c4607e"/>
</svg>
