<svg preserveAspectRatio="none" width="100%" height="100%" overflow="visible" style="display: block;" viewBox="0 0 33 33" fill="none" xmlns="http://www.w3.org/2000/svg">
<path id="Icon" d="M27 12L25.125 7.875L21 6L25.125 4.125L27 0L28.875 4.125L33 6L28.875 7.875L27 12V12M27 33L25.125 28.875L21 27L25.125 25.125L27 21L28.875 25.125L33 27L28.875 28.875L27 33V33M12 28.5L8.25 20.25L0 16.5L8.25 12.75L12 4.5L15.75 12.75L24 16.5L15.75 20.25L12 28.5V28.5M12 21.225L13.5 18L16.725 16.5L13.5 15L12 11.775L10.5 15L7.275 16.5L10.5 18L12 21.225V21.225M12 16.5V16.5V16.5V16.5V16.5V16.5V16.5V16.5V16.5V16.5" fill="#c4607e"/>
</svg>
