<?xml version="1.0" encoding="UTF-8"?>
<svg xmlns="http://www.w3.org/2000/svg" viewBox="0 0 200 200" fill="none">
  <!-- Pointy-top hexagon -->
  <polygon points="100,14 173,57 173,143 100,186 27,143 27,57" fill="#c4607e"/>

  <!-- Flame / brand mark — white, diamond cutout via evenodd -->
  <path fill="white" fill-rule="evenodd" d="
    M 100,36
    C 108,46 118,58 120,72
    C 122,80 122,90 120,98
    C 122,106 126,114 132,126
    C 136,134 134,142 128,148
    C 122,152 114,148 110,140
    C 106,132 104,122 100,120
    C 96,122 94,132 90,140
    C 86,148 78,152 72,148
    C 66,142 64,134 68,126
    C 74,114 78,106 80,98
    C 78,90 78,80 80,72
    C 82,58 92,46 100,36 Z

    M 100,76 L 115,98 L 100,120 L 85,98 Z
  "/>
</svg>
