<svg preserveAspectRatio="none" width="100%" height="100%" overflow="visible" style="display: block;" viewBox="0 0 16.9403 16.9999" fill="none" xmlns="http://www.w3.org/2000/svg">
<g id="Container">
<path id="Icon" d="M8.44035 16.9999C6.27497 16.9999 4.3878 16.2871 2.77883 14.8615C1.16987 13.4358 0.243589 11.6487 0 9.49996H1.53073C1.7833 11.2269 2.56054 12.6586 3.86246 13.7952C5.16439 14.9317 6.69035 15.5 8.44035 15.5C10.3903 15.5 12.0445 14.8208 13.4028 13.4625C14.7612 12.1041 15.4403 10.45 15.4403 8.49996C15.4403 6.54996 14.7612 4.8958 13.4028 3.53746C12.0445 2.17913 10.3903 1.49996 8.44035 1.49996C7.34804 1.49996 6.32433 1.74259 5.3692 2.22784C4.41408 2.7131 3.59165 3.38072 2.9019 4.23071H5.51728V5.73068H0.440421V0.653821H1.94038V3.02305C2.75192 2.06537 3.72371 1.32211 4.85575 0.793263C5.9878 0.264421 7.18266 0 8.44035 0C9.61983 0 10.725 0.223076 11.7557 0.669228C12.7865 1.11538 13.6852 1.72179 14.4519 2.48845C15.2185 3.25511 15.8249 4.15383 16.2711 5.18459C16.7172 6.21536 16.9403 7.32048 16.9403 8.49996C16.9403 9.67945 16.7172 10.7846 16.2711 11.8153C15.8249 12.8461 15.2185 13.7448 14.4519 14.5115C13.6852 15.2781 12.7865 15.8845 11.7557 16.3307C10.725 16.7769 9.61983 16.9999 8.44035 16.9999V16.9999M11.4423 12.5269L7.71921 8.8038V3.49996H9.21918V8.19612L12.4961 11.4731L11.4423 12.5269V12.5269" fill="var(--fill-0, #444748)"/>
</g>
</svg>
