<svg preserveAspectRatio="none" width="100%" height="100%" overflow="visible" style="display: block;" viewBox="0 0 18.7736 19.3076" fill="none" xmlns="http://www.w3.org/2000/svg">
<g id="Container">
<path id="Icon" d="M5.65382 19.3076C5.16793 19.3076 4.75479 19.1375 4.41441 18.7971C4.07403 18.4567 3.90384 18.0436 3.90384 17.5577C3.90384 17.0718 4.07403 16.6586 4.41441 16.3182C4.75479 15.9779 5.16793 15.8077 5.65382 15.8077C6.13971 15.8077 6.55285 15.9779 6.89323 16.3182C7.23361 16.6586 7.4038 17.0718 7.4038 17.5577C7.4038 18.0436 7.23361 18.4567 6.89323 18.7971C6.55285 19.1375 6.13971 19.3076 5.65382 19.3076V19.3076M15.3461 19.3076C14.8602 19.3076 14.4471 19.1375 14.1067 18.7971C13.7663 18.4567 13.5961 18.0436 13.5961 17.5577C13.5961 17.0718 13.7663 16.6586 14.1067 16.3182C14.4471 15.9779 14.8602 15.8077 15.3461 15.8077C15.832 15.8077 16.2451 15.9779 16.5855 16.3182C16.9259 16.6586 17.0961 17.0718 17.0961 17.5577C17.0961 18.0436 16.9259 18.4567 16.5855 18.7971C16.2451 19.1375 15.832 19.3076 15.3461 19.3076V19.3076M4.51534 3.49996L7.04996 8.80768H13.8673C13.925 8.80768 13.9762 8.79325 14.0211 8.76441C14.066 8.73556 14.1045 8.69549 14.1365 8.64421L16.8192 3.76921C16.8577 3.6987 16.8609 3.63619 16.8288 3.5817C16.7968 3.52721 16.7423 3.49996 16.6653 3.49996H4.51534V3.49996M3.79612 2H17.6807C18.0897 2 18.3989 2.17404 18.6086 2.52212C18.8182 2.87019 18.8281 3.22564 18.6384 3.58846L15.4346 9.39227C15.2705 9.68073 15.0535 9.9054 14.7836 10.0663C14.5137 10.2272 14.2179 10.3076 13.8961 10.3076H6.59996L5.44227 12.423C5.39098 12.5 5.38938 12.5833 5.43746 12.6731C5.48554 12.7628 5.55766 12.8077 5.65382 12.8077H17.0961V14.3076H5.65382C4.98716 14.3076 4.4862 14.0201 4.15095 13.4452C3.8157 12.8702 3.80384 12.2961 4.11537 11.7231L5.5423 9.15766L1.90384 1.49996H0V0H2.84612L3.79612 2V2M7.04996 8.80768V8.80768H14.05V8.80768V8.80768V8.80768H7.04996V8.80768" fill="var(--fill-0, #444748)"/>
</g>
</svg>
