<svg preserveAspectRatio="none" width="100%" height="100%" overflow="visible" style="display: block;" viewBox="0 0 11.6667 5.83333" fill="none" xmlns="http://www.w3.org/2000/svg">
<g id="Container">
<path id="Icon" d="M5.25 5.83333H2.91667C2.10972 5.83333 1.42188 5.54896 0.853125 4.98021C0.284375 4.41146 0 3.72361 0 2.91667C0 2.10972 0.284375 1.42188 0.853125 0.853125C1.42188 0.284375 2.10972 0 2.91667 0H5.25V1.16667H2.91667C2.43056 1.16667 2.01736 1.33681 1.67708 1.67708C1.33681 2.01736 1.16667 2.43056 1.16667 2.91667C1.16667 3.40278 1.33681 3.81597 1.67708 4.15625C2.01736 4.49653 2.43056 4.66667 2.91667 4.66667H5.25V5.83333V5.83333M3.5 3.5V2.33333H8.16667V3.5H3.5V3.5M6.41667 5.83333V4.66667H8.75C9.23611 4.66667 9.64931 4.49653 9.98958 4.15625C10.3299 3.81597 10.5 3.40278 10.5 2.91667C10.5 2.43056 10.3299 2.01736 9.98958 1.67708C9.64931 1.33681 9.23611 1.16667 8.75 1.16667H6.41667V0H8.75C9.55694 0 10.2448 0.284375 10.8135 0.853125C11.3823 1.42188 11.6667 2.10972 11.6667 2.91667C11.6667 3.72361 11.3823 4.41146 10.8135 4.98021C10.2448 5.54896 9.55694 5.83333 8.75 5.83333H6.41667V5.83333" fill="var(--fill-0, #1C1B1B)"/>
</g>
</svg>
