<svg preserveAspectRatio="none" width="100%" height="100%" overflow="visible" style="display: block;" viewBox="0 0 18.7922 18.9999" fill="none" xmlns="http://www.w3.org/2000/svg">
<g id="Container">
<path id="Icon" d="M7.08845 18.9999L6.70768 15.9538C6.43973 15.864 6.16504 15.7384 5.88362 15.5769C5.60221 15.4153 5.3506 15.2422 5.1288 15.0576L2.30766 16.2499L0 12.25L2.44037 10.4057C2.4173 10.257 2.40095 10.1077 2.39133 9.95766C2.38172 9.80766 2.37691 9.6583 2.37691 9.50958C2.37691 9.36727 2.38172 9.22272 2.39133 9.07592C2.40095 8.92912 2.4173 8.76854 2.44037 8.59418L0 6.74995L2.30766 2.76924L5.11919 3.95193C5.36022 3.7609 5.61759 3.58622 5.89132 3.42788C6.16504 3.26954 6.43395 3.1423 6.69806 3.04614L7.08845 0H11.7038L12.0845 3.05576C12.3845 3.16473 12.656 3.29198 12.899 3.4375C13.1419 3.58301 13.3871 3.75449 13.6346 3.95193L16.4846 2.76924L18.7922 6.74995L16.3134 8.62303C16.3493 8.78457 16.3688 8.93553 16.372 9.07592C16.3752 9.21631 16.3768 9.35765 16.3768 9.49996C16.3768 9.63586 16.3736 9.77401 16.3672 9.91439C16.3608 10.0548 16.3377 10.2154 16.298 10.3961L18.7576 12.25L16.4499 16.2499L13.6346 15.048C13.3871 15.2454 13.1346 15.4201 12.8769 15.572C12.6192 15.724 12.3551 15.848 12.0845 15.9442L11.7038 18.9999H7.08845V18.9999M8.39611 17.5H10.3615L10.7211 14.8211C11.2314 14.6878 11.6977 14.4984 12.1201 14.2528C12.5426 14.0073 12.9499 13.6916 13.3423 13.3057L15.8269 14.35L16.8115 12.65L14.6423 11.0153C14.7256 10.7564 14.7823 10.5025 14.8124 10.2538C14.8426 10.0051 14.8576 9.75381 14.8576 9.49996C14.8576 9.23971 14.8426 8.98843 14.8124 8.74612C14.7823 8.50381 14.7256 8.25638 14.6423 8.00381L16.8307 6.34996L15.8461 4.64996L13.3326 5.70958C12.998 5.35189 12.5971 5.03586 12.1298 4.7615C11.6624 4.48714 11.1897 4.29291 10.7115 4.17881L10.3961 1.49996H8.41149L8.08072 4.1692C7.57047 4.28971 7.09931 4.47432 6.66726 4.72304C6.23521 4.97176 5.82303 5.29227 5.43072 5.68458L2.94611 4.64996L1.96149 6.34996L4.12111 7.95958C4.03777 8.19676 3.97944 8.44355 3.94611 8.69996C3.91277 8.95637 3.89611 9.22625 3.89611 9.50958C3.89611 9.76984 3.91277 10.025 3.94611 10.275C3.97944 10.525 4.03457 10.7718 4.11149 11.0153L1.96149 12.65L2.94611 14.35L5.42111 13.3C5.80059 13.6897 6.20636 14.0089 6.63841 14.2577C7.07046 14.5064 7.54803 14.6974 8.07111 14.8307L8.39611 17.5V17.5M9.40764 12.4999C10.2397 12.4999 10.9477 12.2079 11.5317 11.624C12.1156 11.04 12.4076 10.332 12.4076 9.49996C12.4076 8.66792 12.1156 7.95992 11.5317 7.37595C10.9477 6.79198 10.2397 6.5 9.40764 6.5C8.56534 6.5 7.85478 6.79198 7.27594 7.37595C6.6971 7.95992 6.40768 8.66792 6.40768 9.49996C6.40768 10.332 6.6971 11.04 7.27594 11.624C7.85478 12.2079 8.56534 12.4999 9.40764 12.4999V12.4999M9.39611 9.49996V9.49996V9.49996V9.49996V9.49996V9.49996V9.49996V9.49996V9.49996V9.49996V9.49996V9.49996V9.49996V9.49996V9.49996V9.49996V9.49996V9.49996V9.49996V9.49996V9.49996V9.49996V9.49996V9.49996V9.49996V9.49996V9.49996V9.49996V9.49996V9.49996V9.49996V9.49996V9.49996V9.49996V9.49996V9.49996" fill="var(--fill-0, #613D3D)"/>
</g>
</svg>
