<svg preserveAspectRatio="none" width="100%" height="100%" overflow="visible" style="display: block;" viewBox="0 0 21 21" fill="none" xmlns="http://www.w3.org/2000/svg">
<g id="Container">
<path id="Icon" d="M18 6L17.05 3.95L15 3L17.05 2.05L18 0L18.95 2.05L21 3L18.95 3.95L18 6V6M6.5 6L5.55 3.95L3.5 3L5.55 2.05L6.5 0L7.45 2.05L9.5 3L7.45 3.95L6.5 6V6M18 17.5L17.05 15.45L15 14.5L17.05 13.55L18 11.5L18.95 13.55L21 14.5L18.95 15.45L18 17.5V17.5M3.1 20.7L0.3 17.9C0.1 17.7 0 17.4583 0 17.175C0 16.8917 0.1 16.65 0.3 16.45L11.45 5.3C11.65 5.1 11.8917 5 12.175 5C12.4583 5 12.7 5.1 12.9 5.3L15.7 8.1C15.9 8.3 16 8.54167 16 8.825C16 9.10833 15.9 9.35 15.7 9.55L4.55 20.7C4.35 20.9 4.10833 21 3.825 21C3.54167 21 3.3 20.9 3.1 20.7V20.7M3.85 18.6L11 11.4L9.6 10L2.4 17.15L3.85 18.6V18.6" fill="var(--fill-0, #C4607E)"/>
</g>
</svg>
