<svg preserveAspectRatio="none" width="100%" height="100%" overflow="visible" style="display: block;" viewBox="0 0 21.5 16.1442" fill="none" xmlns="http://www.w3.org/2000/svg">
<g id="Container">
<path id="Icon" d="M1.74998 16.1442C1.26409 16.1442 0.850952 15.974 0.510571 15.6336C0.17019 15.2932 0 14.8801 0 14.3942C0 13.9083 0.17019 13.4952 0.510571 13.1548C0.850952 12.8144 1.26409 12.6442 1.74998 12.6442C1.8628 12.6442 1.96473 12.649 2.05575 12.6586C2.14678 12.6682 2.23717 12.6993 2.32691 12.7519L7.1077 7.97112C7.05513 7.88137 7.02404 7.79099 7.01442 7.69996C7.00481 7.60893 7 7.50701 7 7.39419C7 6.90829 7.17019 6.49516 7.51057 6.15478C7.85095 5.8144 8.26409 5.6442 8.74998 5.6442C9.23587 5.6442 9.64901 5.8144 9.98939 6.15478C10.3298 6.49516 10.5 6.90829 10.5 7.39419C10.5 7.45316 10.4705 7.63906 10.4115 7.95188L13.1923 10.7327C13.282 10.6929 13.3692 10.6682 13.4538 10.6586C13.5384 10.649 13.6372 10.6442 13.75 10.6442C13.8628 10.6442 13.9631 10.649 14.0509 10.6586C14.1388 10.6682 14.2243 10.6993 14.3077 10.7519L18.1077 6.95188C18.0551 6.86855 18.024 6.78297 18.0144 6.69515C18.0048 6.60733 18 6.50701 18 6.39419C18 5.90829 18.1702 5.49516 18.5106 5.15478C18.851 4.8144 19.2641 4.6442 19.75 4.6442C20.2359 4.6442 20.649 4.8144 20.9894 5.15478C21.3298 5.49516 21.5 5.90829 21.5 6.39419C21.5 6.88008 21.3298 7.29322 20.9894 7.6336C20.649 7.97398 20.2359 8.14417 19.75 8.14417C19.6372 8.14417 19.5368 8.13936 19.449 8.12974C19.3612 8.12013 19.2756 8.08904 19.1923 8.03647L15.3923 11.8365C15.4448 11.9198 15.4759 12.0054 15.4855 12.0932C15.4952 12.181 15.5 12.2814 15.5 12.3942C15.5 12.8801 15.3298 13.2932 14.9894 13.6336C14.649 13.974 14.2359 14.1442 13.75 14.1442C13.2641 14.1442 12.851 13.974 12.5106 13.6336C12.1702 13.2932 12 12.8801 12 12.3942C12 12.2814 12.0048 12.1794 12.0144 12.0884C12.024 11.9974 12.0551 11.907 12.1077 11.8173L9.32691 9.03647C9.23717 9.08904 9.14678 9.12013 9.05575 9.12974C8.96473 9.13936 8.8628 9.14417 8.74998 9.14417C8.69101 9.14417 8.50511 9.11468 8.19229 9.0557L3.4115 13.8365C3.45124 13.9262 3.47592 14.0134 3.48554 14.098C3.49516 14.1826 3.49996 14.2814 3.49996 14.3942C3.49996 14.8801 3.32977 15.2932 2.98939 15.6336C2.64901 15.974 2.23587 16.1442 1.74998 16.1442V16.1442M2.74998 5.97493L2.24999 4.89418L1.16924 4.39419L2.24999 3.8942L2.74998 2.81345L3.24997 3.8942L4.33072 4.39419L3.24997 4.89418L2.74998 5.97493V5.97493M13.75 4.78837L12.9923 3.15186L11.3558 2.39419L12.9923 1.63651L13.75 0L14.5077 1.63651L16.1442 2.39419L14.5077 3.15186L13.75 4.78837V4.78837" fill="var(--fill-0, #613D3D)"/>
</g>
</svg>
