<svg preserveAspectRatio="none" width="100%" height="100%" overflow="visible" style="display: block;" viewBox="0 0 12.7499 14.3365" fill="none" xmlns="http://www.w3.org/2000/svg">
<g id="Container">
<path id="Icon" d="M1.35576 14.3365C0.976915 14.3365 0.656244 14.2052 0.393747 13.9427C0.131249 13.6802 0 13.3596 0 12.9807V2.9423C0 2.56346 0.131249 2.24279 0.393747 1.98029C0.656244 1.71779 0.976915 1.58654 1.35576 1.58654H2.39424V0H3.54806V1.58654H9.23073V0H10.3557V1.58654H11.3942C11.773 1.58654 12.0937 1.71779 12.3562 1.98029C12.6187 2.24279 12.7499 2.56346 12.7499 2.9423V12.9807C12.7499 13.3596 12.6187 13.6802 12.3562 13.9427C12.0937 14.2052 11.773 14.3365 11.3942 14.3365H1.35576V14.3365M1.35576 13.2115H11.3942C11.4519 13.2115 11.5048 13.1875 11.5529 13.1394C11.6009 13.0913 11.625 13.0384 11.625 12.9807V5.9423H1.12497V12.9807C1.12497 13.0384 1.14901 13.0913 1.19709 13.1394C1.24517 13.1875 1.29806 13.2115 1.35576 13.2115V13.2115M1.12497 4.81733H11.625V2.9423C11.625 2.88461 11.6009 2.83172 11.5529 2.78364C11.5048 2.73556 11.4519 2.71152 11.3942 2.71152H1.35576C1.29806 2.71152 1.24517 2.73556 1.19709 2.78364C1.14901 2.83172 1.12497 2.88461 1.12497 2.9423V4.81733V4.81733M1.12497 4.81733V2.9423C1.12497 2.88461 1.12497 2.83172 1.12497 2.78364C1.12497 2.73556 1.12497 2.71152 1.12497 2.71152V2.71152C1.12497 2.71152 1.12497 2.73556 1.12497 2.78364C1.12497 2.83172 1.12497 2.88461 1.12497 2.9423V4.81733V4.81733V4.81733" fill="var(--fill-0, #444748)"/>
</g>
</svg>
