<svg preserveAspectRatio="none" width="100%" height="100%" overflow="visible" style="display: block;" viewBox="0 0 16.9999 14.9999" fill="none" xmlns="http://www.w3.org/2000/svg">
<g id="Container">
<path id="Icon" d="M0 9.49996V8H7V9.49996H0V9.49996M0 5.49996V4H11V5.49996H0V5.49996M0 1.49996V0H11V1.49996H0V1.49996M8.61536 14.9999V12.3577L14.0442 6.95381C14.1686 6.82945 14.3028 6.74196 14.447 6.69132C14.5911 6.64068 14.7353 6.61536 14.8794 6.61536C15.0367 6.61536 15.1888 6.64484 15.3357 6.70382C15.4827 6.76279 15.6163 6.85125 15.7365 6.9692L16.6615 7.90381C16.7692 8.02817 16.8525 8.16278 16.9115 8.30765C16.9704 8.45252 16.9999 8.59739 16.9999 8.74226C16.9999 8.88713 16.973 9.03456 16.9192 9.18456C16.8653 9.33455 16.7794 9.47173 16.6615 9.59609L11.2576 14.9999H8.61536V14.9999M15.8076 8.74226V8.74226L14.8826 7.80764V7.80764L15.8076 8.74226V8.74226M9.80764 13.8076H10.7576L14.0038 10.5461L13.5442 10.0711L13.0788 9.60186L9.80764 12.8576V13.8076V13.8076M13.5442 10.0711L13.0788 9.60186V9.60186L14.0038 10.5461V10.5461L13.5442 10.0711V10.0711" fill="var(--fill-0, #444748)"/>
</g>
</svg>
