<svg preserveAspectRatio="none" width="100%" height="100%" overflow="visible" style="display: block;" viewBox="0 0 10.5 9.33333" fill="none" xmlns="http://www.w3.org/2000/svg">
<g id="Container">
<path id="Icon" d="M3.5 8.75V7.58333H10.5V8.75H3.5V8.75M3.5 5.25V4.08333H10.5V5.25H3.5V5.25M3.5 1.75V0.583333H10.5V1.75H3.5V1.75M1.16667 9.33333C0.845833 9.33333 0.571181 9.2191 0.342708 8.99063C0.114236 8.76215 0 8.4875 0 8.16667C0 7.84583 0.114236 7.57118 0.342708 7.34271C0.571181 7.11424 0.845833 7 1.16667 7C1.4875 7 1.76215 7.11424 1.99063 7.34271C2.2191 7.57118 2.33333 7.84583 2.33333 8.16667C2.33333 8.4875 2.2191 8.76215 1.99063 8.99063C1.76215 9.2191 1.4875 9.33333 1.16667 9.33333V9.33333M1.16667 5.83333C0.845833 5.83333 0.571181 5.7191 0.342708 5.49062C0.114236 5.26215 0 4.9875 0 4.66667C0 4.34583 0.114236 4.07118 0.342708 3.84271C0.571181 3.61424 0.845833 3.5 1.16667 3.5C1.4875 3.5 1.76215 3.61424 1.99063 3.84271C2.2191 4.07118 2.33333 4.34583 2.33333 4.66667C2.33333 4.9875 2.2191 5.26215 1.99063 5.49062C1.76215 5.7191 1.4875 5.83333 1.16667 5.83333V5.83333M1.16667 2.33333C0.845833 2.33333 0.571181 2.2191 0.342708 1.99063C0.114236 1.76215 0 1.4875 0 1.16667C0 0.845833 0.114236 0.571181 0.342708 0.342708C0.571181 0.114236 0.845833 0 1.16667 0C1.4875 0 1.76215 0.114236 1.99063 0.342708C2.2191 0.571181 2.33333 0.845833 2.33333 1.16667C2.33333 1.4875 2.2191 1.76215 1.99063 1.99063C1.76215 2.2191 1.4875 2.33333 1.16667 2.33333V2.33333" fill="var(--fill-0, #1C1B1B)"/>
</g>
</svg>
