<svg preserveAspectRatio="none" width="100%" height="100%" overflow="visible" style="display: block;" viewBox="0 0 48.02 43" fill="none" xmlns="http://www.w3.org/2000/svg">
<g id="Data">
<path id="Icon" d="M15 30.5C14.45 30.5 13.9792 30.3042 13.5875 29.9125C13.1958 29.5208 13 29.05 13 28.5V15.5H12V13.5H17V12.5H23V13.5H28V15.5H27V28.5C27 29.05 26.8042 29.5208 26.4125 29.9125C26.0208 30.3042 25.55 30.5 25 30.5H15V30.5M25 15.5H15V28.5V28.5V28.5H25V28.5V28.5V15.5V15.5M17 26.5H19V17.5H17V26.5V26.5M21 26.5H23V17.5H21V26.5V26.5M15 15.5V15.5V28.5V28.5V28.5V28.5V28.5V28.5V15.5V15.5" fill="var(--fill-0, #747878)"/>
</g>
</svg>
