<svg preserveAspectRatio="none" width="100%" height="100%" overflow="visible" style="display: block;" viewBox="0 0 13.205 13.6153" fill="none" xmlns="http://www.w3.org/2000/svg">
<g id="Container">
<path id="Icon" d="M10.9358 4.5384L10.2307 2.97432L8.66662 2.2692L10.2307 1.56408L10.9358 0L11.6409 1.56408L13.205 2.2692L11.6409 2.97432L10.9358 4.5384V4.5384M10.9358 13.6153L10.2307 12.0512L8.66662 11.3461L10.2307 10.641L10.9358 9.0769L11.6409 10.641L13.205 11.3461L11.6409 12.0512L10.9358 13.6153V13.6153M4.52558 11.3332L3.11534 8.21789L0 6.80765L3.11534 5.39742L4.52558 2.28207L5.93582 5.39742L9.05116 6.80765L5.93582 8.21789L4.52558 11.3332V11.3332M4.52558 8.90765L5.19225 7.47432L6.62558 6.80765L5.19225 6.14099L4.52558 4.70765L3.85892 6.14099L2.42558 6.80765L3.85892 7.47432L4.52558 8.90765V8.90765M4.52558 6.80765V6.80765V6.80765V6.80765V6.80765V6.80765V6.80765V6.80765V6.80765V6.80765" fill="var(--fill-0, #6D595B)"/>
</g>
</svg>
