<svg preserveAspectRatio="none" width="100%" height="100%" overflow="visible" style="display: block;" viewBox="0 0 14.9999 18.9999" fill="none" xmlns="http://www.w3.org/2000/svg">
<g id="Container">
<path id="Icon" d="M1.80768 18.9999C1.30255 18.9999 0.874992 18.8249 0.524995 18.4749C0.174998 18.1249 0 17.6974 0 17.1922V5.80768C0 5.30255 0.174998 4.87499 0.524995 4.525C0.874992 4.175 1.30255 4 1.80768 4H3.74998V3.74998C3.74998 2.71409 4.11601 1.83012 4.84805 1.09807C5.5801 0.366024 6.46407 0 7.49996 0C8.53586 0 9.41983 0.366024 10.1519 1.09807C10.8839 1.83012 11.2499 2.71409 11.2499 3.74998V4H13.1922C13.6974 4 14.1249 4.175 14.4749 4.525C14.8249 4.87499 14.9999 5.30255 14.9999 5.80768V17.1922C14.9999 17.6974 14.8249 18.1249 14.4749 18.4749C14.1249 18.8249 13.6974 18.9999 13.1922 18.9999H1.80768V18.9999M1.80768 17.5H13.1922C13.2692 17.5 13.3397 17.4679 13.4038 17.4038C13.4679 17.3397 13.5 17.2692 13.5 17.1922V5.80768C13.5 5.73075 13.4679 5.66023 13.4038 5.59612C13.3397 5.53202 13.2692 5.49996 13.1922 5.49996H11.2499V7.74998C11.2499 7.9628 11.1782 8.141 11.0346 8.28458C10.891 8.42817 10.7128 8.49996 10.5 8.49996C10.2871 8.49996 10.1089 8.42817 9.96536 8.28458C9.82177 8.141 9.74998 7.9628 9.74998 7.74998V5.49996H5.24995V7.74998C5.24995 7.9628 5.17815 8.141 5.03457 8.28458C4.89098 8.42817 4.71278 8.49996 4.49996 8.49996C4.28715 8.49996 4.10895 8.42817 3.96536 8.28458C3.82177 8.141 3.74998 7.9628 3.74998 7.74998V5.49996H1.80768C1.73075 5.49996 1.66023 5.53202 1.59612 5.59612C1.53202 5.66023 1.49996 5.73075 1.49996 5.80768V17.1922C1.49996 17.2692 1.53202 17.3397 1.59612 17.4038C1.66023 17.4679 1.73075 17.5 1.80768 17.5V17.5M5.24995 4H9.74998V3.74998C9.74998 3.12305 9.53171 2.59132 9.09517 2.15478C8.65863 1.71823 8.12689 1.49996 7.49996 1.49996C6.87303 1.49996 6.3413 1.71823 5.90476 2.15478C5.46822 2.59132 5.24995 3.12305 5.24995 3.74998V4V4M1.49996 17.5V17.5C1.49996 17.5 1.49996 17.4679 1.49996 17.4038C1.49996 17.3397 1.49996 17.2692 1.49996 17.1922V5.80768C1.49996 5.73075 1.49996 5.66023 1.49996 5.59612C1.49996 5.53202 1.49996 5.49996 1.49996 5.49996V5.49996C1.49996 5.49996 1.49996 5.53202 1.49996 5.59612C1.49996 5.66023 1.49996 5.73075 1.49996 5.80768V17.1922C1.49996 17.2692 1.49996 17.3397 1.49996 17.4038C1.49996 17.4679 1.49996 17.5 1.49996 17.5V17.5" fill="var(--fill-0, #613D3D)"/>
</g>
</svg>
