<svg preserveAspectRatio="none" width="100%" height="100%" overflow="visible" style="display: block;" viewBox="0 0 6.06667 8.16667" fill="none" xmlns="http://www.w3.org/2000/svg">
<g id="Container">
<path id="Icon" d="M0 8.16667V0H3.22292C3.85486 0 4.43819 0.194444 4.97292 0.583333C5.50764 0.972222 5.775 1.51181 5.775 2.20208C5.775 2.69792 5.66319 3.07951 5.43958 3.34687C5.21597 3.61424 5.00694 3.80625 4.8125 3.92292V3.92292C5.05556 4.02986 5.32535 4.22917 5.62187 4.52083C5.9184 4.8125 6.06667 5.25 6.06667 5.83333C6.06667 6.69861 5.75069 7.30382 5.11875 7.64896C4.48681 7.9941 3.89375 8.16667 3.33958 8.16667H0V8.16667M1.76458 6.53333H3.28125C3.74792 6.53333 4.03229 6.41424 4.13438 6.17604C4.23646 5.93785 4.2875 5.76528 4.2875 5.65833C4.2875 5.55139 4.23646 5.37882 4.13438 5.14062C4.03229 4.90243 3.73333 4.78333 3.2375 4.78333H1.76458V6.53333V6.53333M1.76458 3.20833H3.12083C3.44167 3.20833 3.675 3.12569 3.82083 2.96042C3.96667 2.79514 4.03958 2.61042 4.03958 2.40625C4.03958 2.17292 3.95694 1.98333 3.79167 1.8375C3.62639 1.69167 3.4125 1.61875 3.15 1.61875H1.76458V3.20833V3.20833" fill="var(--fill-0, #1C1B1B)"/>
</g>
</svg>
